<svg width="130" height="130" viewBox="0 0 130 130" fill="none" xmlns="http://www.w3.org/2000/svg">
<rect width="130" height="130" rx="32" fill="#68D391"/>
<path d="M44.88 72.544C44.88 74.816 44.128 76.816 42.624 78.544C41.12 80.24 39.12 81.408 36.624 82.048V87.28C36.624 87.856 36.432 88.336 36.048 88.72C35.664 89.136 35.168 89.344 34.56 89.344H32.352C31.776 89.344 31.28 89.136 30.864 88.72C30.48 88.336 30.288 87.856 30.288 87.28V82.336C27.344 81.984 25.008 81.12 23.28 79.744C21.552 78.368 20.688 76.624 20.688 74.512C20.688 73.2 21.056 72.144 21.792 71.344C22.56 70.544 23.552 70.144 24.768 70.144C25.984 70.144 26.96 70.48 27.696 71.152C28.432 71.824 28.8 72.704 28.8 73.792C28.8 74.464 28.64 75.12 28.32 75.76C29.472 76.496 30.88 76.864 32.544 76.864C34.368 76.864 35.76 76.528 36.72 75.856C37.68 75.152 38.16 74.176 38.16 72.928C38.16 72.192 38.016 71.6 37.728 71.152C37.44 70.704 36.896 70.288 36.096 69.904C35.328 69.52 34.128 69.072 32.496 68.56C29.712 67.664 27.504 66.752 25.872 65.824C24.24 64.864 23.04 63.76 22.272 62.512C21.536 61.232 21.168 59.68 21.168 57.856C21.168 55.392 22 53.312 23.664 51.616C25.328 49.888 27.552 48.752 30.336 48.208V43.12C30.336 42.544 30.528 42.064 30.912 41.68C31.328 41.264 31.824 41.056 32.4 41.056H34.608C35.216 41.056 35.712 41.264 36.096 41.68C36.48 42.064 36.672 42.544 36.672 43.12V48.16C39.008 48.608 40.88 49.52 42.288 50.896C43.696 52.24 44.4 53.872 44.4 55.792C44.4 57.104 44.016 58.16 43.248 58.96C42.48 59.76 41.488 60.16 40.272 60.16C39.088 60.16 38.112 59.824 37.344 59.152C36.608 58.48 36.24 57.6 36.24 56.512C36.24 55.84 36.4 55.184 36.72 54.544C36.048 53.872 34.832 53.536 33.072 53.536C31.504 53.536 30.256 53.888 29.328 54.592C28.4 55.264 27.936 56.192 27.936 57.376C27.936 58.144 28.096 58.784 28.416 59.296C28.768 59.776 29.36 60.224 30.192 60.64C31.056 61.056 32.336 61.536 34.032 62.08C36.912 62.976 39.12 63.872 40.656 64.768C42.192 65.664 43.28 66.72 43.92 67.936C44.56 69.12 44.88 70.656 44.88 72.544ZM69.897 63.856C71.529 64.528 72.793 65.584 73.689 67.024C74.585 68.432 75.033 70.112 75.033 72.064C75.033 74.08 74.521 75.872 73.497 77.44C72.473 79.008 71.001 80.24 69.081 81.136C67.193 82.032 64.969 82.48 62.409 82.48C60.073 82.48 57.961 82.128 56.073 81.424C54.217 80.688 52.745 79.68 51.657 78.4C50.569 77.088 50.025 75.584 50.025 73.888C50.025 72.576 50.393 71.52 51.129 70.72C51.897 69.888 52.889 69.472 54.105 69.472C55.321 69.472 56.297 69.808 57.033 70.48C57.769 71.152 58.137 72.048 58.137 73.168C58.137 73.936 57.977 74.592 57.657 75.136C58.585 76.288 60.217 76.864 62.553 76.864C64.345 76.864 65.721 76.416 66.681 75.52C67.673 74.624 68.169 73.376 68.169 71.776C68.169 70.336 67.705 69.28 66.777 68.608C65.881 67.904 64.489 67.552 62.601 67.552H60.777C60.169 67.552 59.673 67.36 59.289 66.976C58.905 66.56 58.713 66.064 58.713 65.488V64C58.713 63.392 58.905 62.896 59.289 62.512C59.673 62.128 60.169 61.936 60.777 61.936H62.217C63.817 61.936 65.001 61.632 65.769 61.024C66.537 60.384 66.921 59.328 66.921 57.856C66.921 56.64 66.489 55.616 65.625 54.784C64.761 53.952 63.529 53.536 61.929 53.536C59.945 53.536 58.601 54.048 57.897 55.072C58.281 55.68 58.473 56.4 58.473 57.232C58.473 58.32 58.105 59.216 57.369 59.92C56.633 60.592 55.657 60.928 54.441 60.928C53.225 60.928 52.233 60.528 51.465 59.728C50.697 58.896 50.313 57.824 50.313 56.512C50.313 54.912 50.809 53.456 51.801 52.144C52.825 50.832 54.217 49.808 55.977 49.072C57.769 48.304 59.769 47.92 61.977 47.92C64.441 47.92 66.553 48.304 68.313 49.072C70.105 49.84 71.465 50.912 72.393 52.288C73.321 53.664 73.785 55.216 73.785 56.944C73.785 58.448 73.449 59.792 72.777 60.976C72.137 62.128 71.177 63.088 69.897 63.856ZM93.8524 48.4C98.9724 48.4 102.94 49.776 105.756 52.528C108.572 55.28 109.98 59.184 109.98 64.24C109.98 67.728 109.308 70.816 107.964 73.504C106.652 76.192 104.78 78.288 102.348 79.792C99.9164 81.264 97.1324 82 93.9964 82H82.1884C81.5484 82 81.0364 81.856 80.6524 81.568C80.2684 81.248 80.0764 80.768 80.0764 80.128V78.256C80.0764 77.616 80.2684 77.152 80.6524 76.864C81.0364 76.544 81.5484 76.384 82.1884 76.384H83.0524V54.016H82.1884C81.5484 54.016 81.0364 53.872 80.6524 53.584C80.2684 53.264 80.0764 52.784 80.0764 52.144V50.272C80.0764 49.632 80.2684 49.168 80.6524 48.88C81.0364 48.56 81.5324 48.4 82.1404 48.4H93.8524ZM93.6604 76.384C96.6364 76.384 98.9564 75.344 100.62 73.264C102.284 71.184 103.116 68.272 103.116 64.528C103.116 61.008 102.332 58.384 100.764 56.656C99.1964 54.896 96.8124 54.016 93.6124 54.016H89.7724V76.384H93.6604Z" fill="white"/>
</svg>
